<svg width="178" height="194" viewBox="0 0 178 194" fill="none" xmlns="http://www.w3.org/2000/svg">
<path d="M177.796 84.8621C177.796 76.7693 174.434 69.1851 168.705 64.137C168.954 62.8447 169.078 61.603 169.078 60.3812C169.078 50.3004 162.216 41.928 153.301 40.486C153.506 39.328 153.603 38.192 153.603 37.0604C153.603 26.328 145.817 17.5593 136.064 17.0024C135.904 16.9737 135.742 16.9495 135.573 16.9495C135.492 16.9495 135.413 16.9605 135.33 16.9627C135.249 16.9605 135.17 16.9495 135.087 16.9495C134.159 16.9495 133.225 17.0398 132.238 17.2269C130.523 7.35309 122.606 0 113.114 0C102.351 0 93.5942 9.51279 93.5942 21.2073V166.327C93.5942 181.128 104.677 193.166 118.299 193.166C127.338 193.166 135.541 187.854 139.874 179.415C140.844 179.644 141.776 179.785 142.713 179.851C148.596 180.259 154.325 178.165 158.775 173.923C163.225 169.68 165.888 163.809 166.273 157.389C166.433 154.714 166.157 152.031 165.456 149.38C173.149 143.456 177.67 134.075 177.67 123.796C177.67 116.344 175.2 109.189 170.689 103.489C175.228 98.4962 177.796 91.8167 177.796 84.8621ZM171.594 123.8C171.594 131.471 168.389 138.507 162.891 143.216C158.821 136.18 151.603 131.686 143.787 131.686C142.109 131.686 140.747 133.166 140.747 134.989C140.747 136.811 142.109 138.291 143.787 138.291C150.557 138.291 156.724 142.899 159.152 149.756C159.983 152.152 160.351 154.576 160.208 156.964C159.928 161.623 157.997 165.883 154.766 168.96C151.536 172.04 147.388 173.57 143.11 173.262C141.906 173.176 140.662 172.894 139.193 172.377C137.693 171.844 136.07 172.65 135.452 174.226C132.523 181.72 125.789 186.564 118.297 186.564C108.027 186.564 99.6717 177.487 99.6717 166.329V21.2095C99.6717 13.1585 105.701 6.60677 113.112 6.60677C119.998 6.60677 125.664 12.2471 126.401 19.6134C120.826 23.083 117.055 29.5973 117.055 37.0626C117.055 38.8877 118.417 40.3649 120.095 40.3649C121.773 40.3649 123.135 38.8877 123.135 37.0626C123.135 29.703 128.584 23.7104 135.326 23.5673C142.068 23.7104 147.518 29.703 147.518 37.0604C147.518 38.4298 147.28 39.8476 146.79 41.3996C146.675 41.7651 146.62 42.1482 146.626 42.5334C146.628 42.6237 146.632 42.7074 146.64 42.7866C146.628 42.8328 146.62 42.8637 146.62 42.8637C146.381 43.8874 146.608 44.9749 147.23 45.7873C147.852 46.5996 148.78 47.0399 149.765 46.9717C149.976 46.9563 150.186 46.9277 150.559 46.8704C157.415 46.8704 162.994 52.9312 162.994 60.379C162.994 61.6383 162.785 62.9305 162.341 64.4496C161.93 65.8476 162.418 67.3732 163.539 68.1922C168.472 71.8005 171.461 77.7226 171.674 84.1356C171.674 84.1444 171.671 84.1532 171.671 84.162C171.671 95.2357 163.379 104.247 153.186 104.247C142.992 104.247 134.698 95.2357 134.698 84.162C134.698 82.337 133.336 80.8597 131.658 80.8597C129.98 80.8597 128.618 82.337 128.618 84.162C128.618 98.8792 139.638 110.851 153.186 110.851C157.701 110.851 161.92 109.497 165.56 107.179C169.45 111.78 171.594 117.665 171.594 123.8Z" fill="#0012B4"/>
<path d="M64.678 0.00202179C55.1858 0.00202179 47.2703 7.35511 45.5579 17.2289C44.569 17.0418 43.6347 16.9516 42.7066 16.9516C42.6255 16.9516 42.5465 16.9626 42.4634 16.9648C42.3824 16.9626 42.3033 16.9516 42.2202 16.9516C42.052 16.9516 41.8899 16.9758 41.7298 17.0044C31.9763 17.5614 24.1924 26.33 24.1924 37.0625C24.1924 38.1941 24.2917 39.33 24.4944 40.488C15.5798 41.93 8.71803 50.3024 8.71803 60.3832C8.71803 61.6029 8.84165 62.8445 9.09091 64.139C3.36197 69.1871 0 76.7714 0 84.8642C0 91.8188 2.56556 98.4982 7.10291 103.496C2.58988 109.195 0.119564 116.35 0.119564 123.802C0.119564 134.081 4.6407 143.46 12.3333 149.386C11.6301 152.037 11.3565 154.721 11.5187 157.398C11.9037 163.815 14.5645 169.687 19.0147 173.929C23.4649 178.174 29.1776 180.267 35.0768 179.858C35.9989 179.792 36.9392 179.646 37.9139 179.42C42.2466 187.86 50.4499 193.173 59.4881 193.173C73.1103 193.173 84.1933 181.132 84.1933 166.334V21.2093C84.1973 9.51481 75.4408 0.00202179 64.678 0.00202179ZM78.1178 166.329C78.1178 177.487 69.7625 186.564 59.4922 186.564C52.0002 186.564 45.2661 181.72 42.3398 174.226C41.8514 172.978 40.7328 172.214 39.5412 172.214C39.2291 172.214 38.911 172.265 38.5989 172.377C37.1317 172.894 35.8874 173.176 34.6816 173.262C30.3875 173.568 26.2554 172.038 23.0272 168.96C19.7969 165.882 17.8657 161.622 17.586 156.964C17.432 154.41 17.8393 151.821 18.7979 149.27C18.8121 149.232 18.808 149.19 18.8202 149.153C21.5397 142.425 27.3822 138.249 34.2155 138.249C35.8955 138.249 37.2553 136.769 37.2553 134.947C37.2553 133.124 35.8955 131.644 34.2155 131.644C26.2352 131.644 19.0147 136.063 14.8665 143.178C9.39286 138.469 6.19908 131.451 6.19908 123.8C6.19908 117.665 8.34718 111.78 12.234 107.181C15.8736 109.499 20.0948 110.853 24.6099 110.853C38.1571 110.853 49.1772 98.8813 49.1772 84.1641C49.1772 82.339 47.8175 80.8618 46.1375 80.8618C44.4575 80.8618 43.0977 82.339 43.0977 84.1641C43.0977 95.2377 34.8053 104.249 24.6099 104.249C14.4145 104.249 6.12208 95.2377 6.12208 84.1641C6.12208 84.1597 6.12005 84.1553 6.12005 84.1509C6.32878 77.7334 9.31788 71.8069 14.2524 68.1942C15.3731 67.3753 15.8594 65.8518 15.4501 64.4538C15.0043 62.9326 14.7976 61.6403 14.7976 60.381C14.7976 52.9487 20.3522 46.8967 27.3518 46.8967C27.3659 46.8967 27.3822 46.8967 27.3963 46.8967C27.6051 46.9275 27.8138 46.9561 28.0266 46.9715C29.0094 47.0376 29.9477 46.5951 30.5678 45.7783C31.19 44.9593 31.4129 43.8674 31.1636 42.8415C31.1636 42.8393 31.1575 42.8107 31.1474 42.7732C31.1535 42.6962 31.1596 42.6257 31.1616 42.5641C31.1717 42.1678 31.117 41.7737 30.9974 41.3995C30.507 39.843 30.2699 38.423 30.2699 37.0581C30.2699 29.7006 35.7172 23.7058 42.4614 23.5649C49.2056 23.708 54.6529 29.7006 54.6529 37.0603C54.6529 38.8853 56.0126 40.3626 57.6926 40.3626C59.3726 40.3626 60.7324 38.8853 60.7324 37.0603C60.7324 29.5949 56.9611 23.0806 51.3861 19.611C52.1238 12.2447 57.7899 6.60439 64.676 6.60439C72.0869 6.60439 78.1158 13.1561 78.1158 21.2071L78.1178 166.329Z" fill="#0012B4"/>
</svg>
